# xmcd
#
# Track frame offsets:
#	150
#	22785
#	35650
#	51983
#	69380
#	87293
#	105903
#	128490
#	151605
#	168705
#	184183
#	203843
#	225100
#	245218
#	265060
#
# Disc length: 3714 seconds
#
# Revision: 1
# Processed by: cddbd v1.5.1PL0 Copyright (c) Steve Scherf et al.
# Submitted via: CDex 1.50Beta5
#
DISCID=b70e800f
DTITLE=観月ありさ - 20世紀BEST アイドル・ヒストリー コロムビア編
DYEAR=1999
DGENRE=Pop
TTITLE0=観月ありさ/伝説の少女
TTITLE1=榊原郁恵/夏のお嬢さん
TTITLE2=河合奈保子/スマイル・フォー・ミー
TTITLE3=高見知佳/くちびるヌード
TTITLE4=渋谷哲平/Deep
TTITLE5=後藤久美子/Teardrop
TTITLE6=富田靖子/さびしんぼう
TTITLE7=渡辺典子/あこがれ座
TTITLE8=湯江健幸/HURRY UP
TTITLE9=竹宏浩/舞・舞・舞
TTITLE10=島田奈美/ガラスの幻想曲
TTITLE11=忍者/お祭り忍者
TTITLE12=奥菜恵/そんなの悲しいね
TTITLE13=平山三紀/真夏の出来事
TTITLE14=内藤洋子/白馬のルンナ
EXTD=
EXTT0=
EXTT1=
EXTT2=
EXTT3=
EXTT4=
EXTT5=
EXTT6=
EXTT7=
EXTT8=
EXTT9=
EXTT10=
EXTT11=
EXTT12=
EXTT13=
EXTT14=
PLAYORDER=
